<svg width="882" height="1170" viewBox="0 0 882 1170" fill="none" xmlns="http://www.w3.org/2000/svg">
<g id="Square-background-shrink" clip-path="url(#clip0_337_949)">
<g id="Logogram">
<path id="Fill 9" fill-rule="evenodd" clip-rule="evenodd" d="M0 1169.98H880V1023.73H0V1169.98Z" fill="#38D1C4"/>
<path id="Mask" fill-rule="evenodd" clip-rule="evenodd" d="M733.533 877.617L733.41 438.809C733.41 358.079 700.521 284.953 647.422 232.011C594.323 179.068 520.995 146.25 440.047 146.25C359.093 146.25 285.765 179.068 232.666 232.011C179.567 284.953 146.678 358.079 146.678 438.809C146.678 519.539 179.567 592.663 232.666 645.606C285.765 698.548 359.093 731.309 440.047 731.309H440.17C521.183 731.309 586.854 796.829 586.854 877.617H440.047C197.179 877.617 0 680.999 0 438.809C0 196.619 197.179 0 440.047 0C682.915 0 880.088 196.619 880.088 438.809V877.617H733.533Z" fill="#083D77"/>
<mask id="mask0_337_949" style="mask-type:luminance" maskUnits="userSpaceOnUse" x="0" y="0" width="881" height="878">
<path id="Mask_2" fill-rule="evenodd" clip-rule="evenodd" d="M733.533 877.617L733.41 438.809C733.41 358.079 700.521 284.953 647.422 232.011C594.323 179.068 520.995 146.25 440.047 146.25C359.093 146.25 285.765 179.068 232.666 232.011C179.567 284.953 146.678 358.079 146.678 438.809C146.678 519.539 179.567 592.663 232.666 645.606C285.765 698.548 359.093 731.309 440.047 731.309H440.17C521.183 731.309 586.854 796.829 586.854 877.617H440.047C197.179 877.617 0 680.999 0 438.809C0 196.619 197.179 0 440.047 0C682.915 0 880.088 196.619 880.088 438.809V877.617H733.533Z" fill="white"/>
</mask>
<g mask="url(#mask0_337_949)">
</g>
</g>
</g>
<defs>
<clipPath id="clip0_337_949">
<rect width="441" height="585" fill="white" transform="scale(2)"/>
</clipPath>
</defs>
</svg>
